<svg xmlns="http://www.w3.org/2000/svg" width="960" height="720" viewBox="0 0 960 720"><style>.t{font-family:Arial;fill:#0B2545}.label{font-family:Arial;font-size:13px;fill:#334155}.th{font-family:Arial;font-size:12px;fill:#fff;font-weight:bold}</style><rect width="960" height="720" fill="#F4F7FB"/><rect x="20" y="20" width="920" height="56" rx="10" fill="#16324F"/><text x="910" y="54" text-anchor="end" class="t" fill="#fff" style="fill:#fff;font-size:20px;font-weight:bold">أنواع المركبات</text><text x="50" y="54" class="t" fill="#d7e4f2" style="fill:#d7e4f2;font-size:12px">GEN-008</text><rect x="20" y="92" width="920" height="50" rx="10" fill="#fff"/><text x="900" y="123" text-anchor="end" class="t" style="font-size:15px">جديد  |  حفظ  |  تعديل  |  إيقاف  |  حذف  |  طباعة</text><rect x="20" y="158" width="920" height="286" rx="12" fill="#fff"/><text x="900" y="190" text-anchor="end" class="t" style="font-size:16px;font-weight:bold">البيانات الرئيسية</text><rect x="70" y="250" width="330" height="35" rx="6" fill="#FFF9D9" stroke="#D9DEE7"/><text x="390" y="242+(i//2)*66" text-anchor="end" class="label">كود النوع</text><rect x="490" y="250" width="330" height="35" rx="6" fill="#FFF9D9" stroke="#D9DEE7"/><text x="810" y="242+(i//2)*66" text-anchor="end" class="label">الاسم العربي</text><rect x="70" y="316" width="330" height="35" rx="6" fill="#FFF9D9" stroke="#D9DEE7"/><text x="390" y="242+(i//2)*66" text-anchor="end" class="label">الاسم الإنجليزي</text><rect x="490" y="316" width="330" height="35" rx="6" fill="#FFF9D9" stroke="#D9DEE7"/><text x="810" y="242+(i//2)*66" text-anchor="end" class="label">فئة المركبة</text><rect x="70" y="382" width="330" height="35" rx="6" fill="#FFF9D9" stroke="#D9DEE7"/><text x="390" y="242+(i//2)*66" text-anchor="end" class="label">سعة الركاب</text><rect x="490" y="382" width="330" height="35" rx="6" fill="#FFF9D9" stroke="#D9DEE7"/><text x="810" y="242+(i//2)*66" text-anchor="end" class="label">سعة الحمولة</text><rect x="20" y="460" width="920" height="48" rx="10" fill="#fff"/><text x="900" y="491" text-anchor="end" class="t" style="font-size:14px">بحث في السجلات</text><rect x="20" y="524" width="920" height="155" rx="12" fill="#fff"/><rect x="70" y="540" width="800" height="34" fill="#2E74B5" rx="4"/><text x="870.0" y="565" text-anchor="end" class="th">الكود</text><text x="736.6666666666666" y="565" text-anchor="end" class="th">الاسم العربي</text><text x="603.3333333333333" y="565" text-anchor="end" class="th">الفئة</text><text x="470.0" y="565" text-anchor="end" class="th">سعة الركاب</text><text x="336.66666666666663" y="565" text-anchor="end" class="th">سعة الحمولة</text><text x="203.33333333333326" y="565" text-anchor="end" class="th">الحالة</text><line x1="70" y1="590" x2="870" y2="590" stroke="#E6EAF0"/><line x1="70" y1="625" x2="870" y2="625" stroke="#E6EAF0"/><line x1="70" y1="660" x2="870" y2="660" stroke="#E6EAF0"/><line x1="70" y1="695" x2="870" y2="695" stroke="#E6EAF0"/><text x="900" y="705" text-anchor="end" class="t" style="font-size:11px;fill:#64748B">بيانات الإنشاء والتعديل • الأول السابق 1 التالي الأخير</text></svg>